Coordinates
version=1
nRows=17
nColumns=24
inDegrees=yes

Units are S.I. units (second, meters, Newtons, ...)
Angles are in degrees.

endheader
time	pelvis_tilt	pelvis_list	pelvis_rotation	pelvis_tx	pelvis_ty	pelvis_tz	hip_flexion_r	hip_adduction_r	hip_rotation_r	knee_angle_r	ankle_angle_r	subtalar_angle_r	mtp_angle_r	hip_flexion_l	hip_adduction_l	hip_rotation_l	knee_angle_l	ankle_angle_l	subtalar_angle_l	mtp_angle_l	lumbar_extension	lumbar_bending	lumbar_rotation
      6.02000000	      6.12476824	     -4.86644779	    -15.08778970	      1.38274884	      0.80811452	     -0.11720141	    -22.43340099	      2.25678568	     11.49795600	     -5.17638402	     21.81970985	     12.03952088	      0.00000000	     12.75793084	     -6.98338789	    -16.02628246	     -0.20429261	      2.84810042	    -11.36099173	      0.00000000	    -27.97125723	     -2.00082938	     13.77943146
      6.03000000	      6.20580699	     -4.98151676	    -15.35201523	      1.39606577	      0.80694047	     -0.11853982	    -23.21775961	      1.85460611	     11.47404185	     -5.68864301	     21.56466934	     12.46706995	      0.00000000	     12.37620572	     -6.93672443	    -15.67819068	      0.53978143	      2.89356268	    -10.93101475	      0.00000000	    -27.89921407	     -1.94239771	     14.49559342
      6.04000000	      6.47848043	     -4.85837018	    -15.61490314	      1.40985894	      0.80614382	     -0.11993996	    -24.11610703	      1.13527644	     11.37819819	     -6.26984390	     21.21840171	     12.98289421	      0.00000000	     11.80627052	     -6.56802867	    -15.52470408	      0.87733446	      2.76223991	    -11.00622022	      0.00000000	    -27.86967672	     -2.15617377	     15.04542725
      6.05000000	      6.81856264	     -4.65763362	    -15.75987647	      1.42385059	      0.80561650	     -0.12145440	    -24.99075763	      0.37368700	     11.19952647	     -6.99639071	     20.62961013	     13.43608559	      0.00000000	     11.21898271	     -6.07738130	    -15.25445249	      0.77042150	      2.44900410	    -11.60306553	      0.00000000	    -27.88637129	     -2.43908934	     15.40477905
      6.06000000	      7.18323792	     -4.33479609	    -15.83629667	      1.43805481	      0.80532118	     -0.12311768	    -25.77120234	     -0.47752827	     11.00205565	     -7.89487901	     19.85890641	     13.85265643	      0.00000000	     10.66858159	     -5.42954975	    -14.96086860	      0.26396340	      1.88650677	    -12.67845869	      0.00000000	    -27.87224785	     -2.80752148	     15.64235355
      6.07000000	      7.58168426	     -3.87856629	    -15.80301838	      1.45245090	      0.80526462	     -0.12491270	    -26.45235739	     -1.38954674	     10.72511940	     -8.99927011	     18.88648695	     14.18392093	      0.00000000	     10.15872926	     -4.61526013	    -14.57293346	     -0.59422425	      1.10605052	    -14.03726900	      0.00000000	    -27.83992173	     -3.28493968	     15.70490859
      6.08000000	      8.00099178	     -3.32771795	    -15.63976580	      1.46701074	      0.80548918	     -0.12689579	    -27.01420644	     -2.30252546	     10.34013615	    -10.33910906	     17.62566473	     14.45896979	      0.00000000	      9.69266246	     -3.67354388	    -14.09141233	     -1.72687335	      0.14196708	    -15.47707078	      0.00000000	    -27.79242421	     -3.80003481	     15.59623337
      6.09000000	      8.41157219	     -2.69220890	    -15.38666222	      1.48160268	      0.80594219	     -0.12895484	    -27.36428508	     -3.18328557	      9.85918197	    -12.02829619	     16.14081044	     14.58321246	      0.00000000	      9.32043372	     -2.64738816	    -13.59168512	     -3.13285323	     -0.72501333	    -16.71922565	      0.00000000	    -27.73198199	     -4.38580653	     15.31425956
      6.10000000	      8.85541253	     -2.04526258	    -14.98280050	      1.49621987	      0.80670497	     -0.13124296	    -27.56919531	     -3.96299204	      9.24123804	    -14.04550751	     14.31795524	     14.68509433	      0.00000000	      8.95254359	     -1.57534645	    -12.96539006	     -4.68807392	     -1.53618194	    -17.79265748	      0.00000000	    -27.72376162	     -4.89828331	     14.91330255
      6.11000000	      9.20849321	     -1.37011148	    -14.58801970	      1.51072395	      0.80764744	     -0.13337512	    -27.40886777	     -4.64942789	      8.75246890	    -16.51027689	     12.19459457	     14.48143840	      0.00000000	      8.69817280	     -0.53236191	    -12.55387645	     -6.36090033	     -1.88238357	    -18.15136750	      0.00000000	    -27.63209288	     -5.47137575	     14.46177836
      6.12000000	      9.62031007	     -0.74065368	    -13.99822073	      1.52504712	      0.80878973	     -0.13573763	    -27.05532708	     -5.16173402	      7.95782764	    -19.41709232	      9.78600410	     14.21852322	      0.00000000	      8.34974820	      0.51692323	    -11.81854883	     -8.00277107	     -1.97884621	    -18.39453323	      0.00000000	    -27.69699859	     -5.93760255	     13.89614280
      6.13000000	      9.99238204	     -0.13981377	    -13.37179099	      1.53909709	      0.81002609	     -0.13806425	    -26.35706514	     -5.55098857	      7.18555888	    -22.77572685	      7.08783736	     13.71468413	      0.00000000	      7.95898093	      1.53417408	    -11.04580209	     -9.52090321	     -1.75489038	    -18.39265745	      0.00000000	    -27.80107967	     -6.38182675	     13.34184849
      6.14000000	     10.26855627	      0.39554794	    -12.68148704	      1.55277670	      0.81122269	     -0.14042542	    -25.24973103	     -5.78042971	      6.36770526	    -26.54906788	      4.11460456	     12.92596069	      0.00000000	      7.56799326	      2.47060219	    -10.23984449	    -10.88077164	     -1.12538330	    -18.11467192	      0.00000000	    -27.90539669	     -6.71826877	     12.74665624
      6.15000000	     10.43355517	      0.90643251	    -12.02573626	      1.56610412	      0.81233976	     -0.14261386	    -23.73489864	     -5.92369669	      5.66280890	    -30.62260628	      0.86210944	     11.69640462	      0.00000000	      7.14603936	      3.34679321	     -9.59580033	    -11.97745854	     -0.17141328	    -17.59584683	      0.00000000	    -27.95574331	     -7.05427172	     12.15954139
      6.16000000	     10.43789162	      1.41551160	    -11.44061740	      1.57906439	      0.81327977	     -0.14462278	    -21.78065025	     -6.03204315	      5.06208126	    -34.89799478	     -2.51158311	     10.11765298	      0.00000000	      6.74086032	      4.17012041	     -9.13825164	    -12.79140232	      1.04384462	    -16.85136482	      0.00000000	    -27.88092287	     -7.41578999	     11.67376529
      6.17000000	     10.41005755	      1.93369686	    -10.96366132	      1.59162496	      0.81412215	     -0.14641500	    -19.58512325	     -6.14792559	      4.63169736	    -39.22622654	     -5.79015017	      8.18075089	      0.00000000	      6.19379433	      4.99166217	     -8.79277102	    -13.25620648	      2.30805615	    -16.16804981	      0.00000000	    -27.84662865	     -7.84928558	     11.16056289
      6.18000000	     10.39822473	      2.44858567	    -10.57535064	      1.60379394	      0.81491913	     -0.14808655	    -17.26500850	     -6.27640931	      4.30509509	    -43.47174942	     -8.70372554	      6.03017123	      0.00000000	      5.47588473	      5.81502743	     -8.58130238	    -13.39542868	      3.48744135	    -15.64288939	      0.00000000	    -27.91740238	     -8.31575138	     10.65246955
